# AST/ASF file generated using VICON BodyLanguage
# -----------------------------------------------
:version 1.10
:name VICON
:units
  mass 1.0
  length 0.45
  angle deg
:documentation
   .ast/.asf automatically generated from VICON data using
   VICON BodyBuilder and BodyLanguage model FoxedUp or BRILLIANT.MOD
:root
   order TX TY TZ RX RY RZ
   axis XYZ
   position 0 0 0  
   orientation 0 0 0 
:bonedata
  begin
     id 1 
     name lhipjoint
     direction 0.522423 -0.726805 0.445902 
     length 2.25074 
     axis 0 0 0  XYZ
  end
  begin
     id 2 
     name lfemur
     direction 0.34202 -0.939693 0  
     length 6.54609  
     axis 0 0 20  XYZ
    dof rx ry rz
    limits (-160.0 20.0)
           (-70.0 70.0)
           (-60.0 70.0)
  end
  begin
     id 3 
     name ltibia
     direction 0.34202 -0.939693 0   
     length 7.7528   
     axis 0 0 20   XYZ
    dof rx
    limits (-10.0 170.0)
  end
  begin
     id 4 
     name lfoot
     direction 0.143696 -0.394801 0.90746   
     length 1.73269   
     axis -90 7.62852e-016 20   XYZ
    dof rx rz
    limits (-45.0 90.0)
           (-70.0 20.0)
  end
  begin
     id 5 
     name ltoes
     direction 1.53633e-011 -4.21912e-011 1   
     length 0.858383   
     axis -90 7.62852e-016 20   XYZ
    dof rx
    limits (-90.0 20.0)
  end
  begin
     id 6 
     name rhipjoint
     direction -0.515943 -0.73016 0.447961   
     length 2.2404  
     axis 0 0 0  XYZ 
  end
  begin
     id 7 
     name rfemur
     direction -0.34202 -0.939693 0   
     length 6.84377   
     axis 0 0 -20   XYZ
    dof rx ry rz
    limits (-160.0 20.0)
           (-70.0 70.0)
           (-70.0 60.0)
  end
  begin
     id 8 
     name rtibia
     direction -0.34202 -0.939693 0   
     length 7.57596   
     axis 0 0 -20   XYZ
    dof rx
    limits (-10.0 170.0)
 end
 begin
     id 9 
     name rfoot
     direction -0.0999372 -0.274575 0.956358   
     length 1.78783  
     axis -90 -7.62852e-016 -20   XYZ
    dof rx rz
    limits (-45.0 90.0)
           (-20.0 70.0)
  end
  begin
     id 10 
     name rtoes
     direction -1.53535e-011 -4.21895e-011 1   
     length 0.898614   
     axis -90 -7.62852e-016 -20   XYZ
    dof rx
    limits (-90.0 20.0)
  end
  begin
     id 11 
     name lowerback
     direction -0.011775 0.996164 -0.0867116   
     length 1.91499   
     axis 0 0 0   XYZ
    dof rx ry rz
    limits (-20.0 45.0)
           (-30.0 30.0)
           (-30.0 30.0)
  end
  begin
     id 12 
     name upperback
     direction -0.00189771 0.999673 -0.0254833   
     length 1.92213   
     axis 0 0 0   XYZ
    dof rx ry rz
    limits (-20.0 45.0)
           (-30.0 30.0)
           (-30.0 30.0)
  end
  begin
     id 13 
     name thorax
     direction 0.00335995 0.999878 0.0152401   
     length 1.93138   
     axis 0 0 0   XYZ
    dof rx ry rz
    limits (-20.0 45.0)
           (-30.0 30.0)
           (-30.0 30.0)
  end
  begin
     id 14 
     name lowerneck
     direction 0.00233191 0.998509 0.0545404   
     length 1.59408   
     axis 0 0 0   XYZ
    dof rx ry rz
    limits (-20.0 45.0)
           (-30.0 30.0)
           (-30.0 30.0)
  end
  begin
     id 15 
     name upperneck
     direction 0.07881 0.9956 -0.0506934   
     length 1.59344   
     axis 0 0 0   XYZ
    dof rx ry rz
    limits (-20.0 45.0)
           (-30.0 30.0)
           (-30.0 30.0)
  end
  begin
     id 16
     name head
     direction 0.0261681 0.999378 -0.0236299  
     length 1.60935  
     axis 0 0 0   XYZ
    dof rx ry rz
    limits (-20.0 45.0)
           (-30.0 30.0)
           (-30.0 30.0)
  end
  begin
     id 17 
     name lclavicle
     direction 0.96643 0.252035 0.0499195  
     length 3.82153  
     axis 0 0 0   XYZ
    dof ry rz
    limits (-20.0 10.0)
           (0.0 20.0)
  end
  begin
     id 18 
     name lhumerus
     direction 1 -4.48967e-011 -2.01614e-018   
     length 4.87796   
     axis 180 -30 -90   XYZ
    dof rx ry rz
    limits (-60.0 90.0)
           (-90.0 90.0)
           (-90.0 90.0)
  end
  begin
     id 19
     name lradius
     direction 1 -4.48958e-011 3.1409e-027   
     length 3.23169   
     axis 180 -30 -90   XYZ
    dof rx
    limits (-10.0 170.0)
  end
  begin
     id 20
     name lwrist
     direction 1 -4.48924e-011 1.0365e-027   
     length 1.61584   
     axis -2.56395e-016 90 90   XYZ
    dof ry
    limits (-180.0 0.0)
 end
  begin
     id 21 
     name lhand
     direction 1 -4.49055e-011 2.09488e-027   
     length 0.731324   
     axis -1.32723e-015 90 90   XYZ
    dof rx rz
    limits (-90.0 90.0)
           (-45.0 45.0)
  end
  begin
     id 22 
     name lfingers
     direction 1 -4.48935e-011 4.14981e-027   
     length 0.589612   
     axis -2.6545e-015 90 90   XYZ
    dof rx
    limits (0.0 90.0)
  end
  begin
     id 23
     name lthumb
     direction 0.707107 -6.35097e-011 0.707107   
     length 0.846569   
     axis -90 45 5.05613e-014   XYZ
    dof rx rz
    limits (-45.0 45.0)
           (-45.0 45.0)
  end
  begin
     id 24 
     name rclavicle
     direction -0.979337 0.201016 0.0221522   
     length 3.73827  
     axis 0 0 0   XYZ 
    dof ry rz
    limits (-10.0 20.0)
           (-20.0 0.0)
  end
  begin
     id 25 
     name rhumerus
     direction -1 -4.48971e-011 1.65907e-027  
     length 4.9143   
     axis 180 30 90   XYZ
    dof rx ry rz
    limits (-90.0 60.0)
           (-90.0 90.0)
           (-90.0 90.0)
  end
  begin
     id 26 
     name rradius
     direction -1 -4.4894e-011 2.17871e-028   
     length 3.29093   
     axis 180 30 90   XYZ
    dof rx
    limits (-10.0 170.0)
  end
  begin
     id 27 
     name rwrist
     direction -1 -4.48971e-011 1.04038e-027   
     length 1.64546   
     axis -2.56395e-016 -90 -90   XYZ
    dof ry
    limits (-180.0 0.0)
  end
  begin
     id 28
     name rhand
     direction -1 -4.49017e-011 2.08843e-027   
     length 0.54512   
     axis -1.32723e-015 -90 -90   XYZ
    dof rx rz
    limits (-90.0 90.0)
           (-45.0 45.0)
  end
  begin
     id 29
     name rfingers
     direction -1 -4.48918e-011 4.1439e-027   
     length 0.43949   
     axis -2.6545e-015 -90 -90   XYZ
    dof rx
    limits (0.0 90.0)
  end
  begin
     id 30
     name rthumb
     direction -0.707107 -6.35065e-011 0.707107   
     length 0.631022   
     axis -90 -45 -5.05613e-014   XYZ
    dof rx rz
    limits (-45.0 45.0)
           (-45.0 45.0)
  end
:hierarchy
  begin
    root lhipjoint rhipjoint lowerback
    lhipjoint lfemur
    lfemur ltibia
    ltibia lfoot
    lfoot ltoes
    rhipjoint rfemur
    rfemur rtibia
    rtibia rfoot
    rfoot rtoes
    lowerback upperback
    upperback thorax
    thorax lowerneck lclavicle rclavicle
    lowerneck upperneck
    upperneck head
    lclavicle lhumerus
    lhumerus lradius
    lradius lwrist
    lwrist lhand lthumb
    lhand lfingers
    rclavicle rhumerus
    rhumerus rradius
    rradius rwrist
    rwrist rhand rthumb
    rhand rfingers
  end

#!OML:ASF H:\BreakDance\Project 1\Capture day 1\Session 1\Male.ASF
:FULLY-SPECIFIED
:DEGREES
96
root 9.23568 16.0337 -0.133905 -95.9048 -88.477 95.8896
lowerback -7.45835 0.534413 -1.11046
upperback 3.84013 0.935367 -1.67048
thorax 8.25422 0.434728 -1.00635
lowerneck -2.95115 0.014309 -0.353404
upperneck 29.5758 -2.25878 3.80811
head 9.88307 -1.15785 1.1162
rclavicle -1.09332e-015 6.36111e-015
rhumerus -29.8871 2.73937 -91.7039
rradius 60.9771
rwrist 12.0906
rhand -41.5174 -29.3836
rfingers 7.12502
rthumb -14.4302 -58.862
lclavicle -1.09332e-015 6.36111e-015
lhumerus -27.7518 -7.84361 88.5163
lradius 59.6763
lwrist -19.9817
lhand -32.6004 -37.7293
lfingers 7.12502
lthumb -5.82843 -7.82944
rfemur -16.57 1.38661 8.65937
rtibia 43.4408
rfoot -22.9525 -19.2289
rtoes -9.01617
lfemur -13.1239 2.83967 -10.0098
ltibia 36.3094
lfoot -26.904 22.5685
ltoes -33.9236
97
root 9.23576 16.0342 -0.133961 -95.598 -88.4821 95.5876
lowerback -7.47789 0.566502 -1.05889
upperback 3.8383 0.974569 -1.68871
thorax 8.26531 0.457251 -1.0488
lowerneck -2.96073 -0.0121734 -0.348663
upperneck 29.5595 -2.29918 3.82762
head 9.88024 -1.17317 1.11857
rclavicle 3.23025e-016 1.59028e-015
rhumerus -29.8986 2.65086 -91.6902
rradius 60.9939
rwrist 12.0606
rhand -41.5575 -29.3895
rfingers 7.12502
rthumb -14.4689 -58.865
lclavicle 3.23025e-016 1.59028e-015
lhumerus -27.7243 -7.94777 88.5344
lradius 59.6561
lwrist -19.9725
lhand -32.581 -37.7147
lfingers 7.12502
lthumb -5.80973 -7.81433
rfemur -16.5701 1.36471 8.66261
rtibia 43.4358
rfoot -22.9289 -19.2318
rtoes -9.05549
lfemur -13.1337 2.83458 -10.0048
ltibia 36.3105
lfoot -26.9114 22.5633
ltoes -33.9458
98
root 9.23576 16.0347 -0.13375 -95.4858 -88.4839 95.4818
lowerback -7.50266 0.593866 -1.01176
upperback 3.84176 1.00817 -1.70873
thorax 8.28518 0.476795 -1.09143
lowerneck -2.9769 -0.0380466 -0.358528
upperneck 29.5416 -2.34338 3.87096
head 9.87855 -1.18932 1.13149
rclavicle -1.963e-015 5.1684e-015
rhumerus -29.8986 2.57853 -91.6867
rradius 61.0104
rwrist 12.0329
rhand -41.5988 -29.3897
rfingers 7.12502
rthumb -14.5087 -58.8624
lclavicle -1.963e-015 5.1684e-015
lhumerus -27.6733 -8.04483 88.5355
lradius 59.6212
lwrist -19.9544
lhand -32.5698 -37.6987
lfingers 7.12502
lthumb -5.7989 -7.79802
rfemur -16.5726 1.33515 8.66026
rtibia 43.4287
rfoot -22.8938 -19.2253
rtoes -9.10895
lfemur -13.1469 2.83267 -10.0051
ltibia 36.3125
lfoot -26.907 22.5786
ltoes -34.0302
99
root 9.2358 16.0351 -0.1334 -95.5152 -88.4763 95.5194
lowerback -7.53391 0.603748 -0.996411
upperback 3.8523 1.02136 -1.72003
thorax 8.31555 0.484308 -1.10993
lowerneck -3.02595 -0.0470139 -0.36469
upperneck 29.5458 -2.36197 3.90011
head 9.8904 -1.19418 1.14102
rclavicle 9.64106e-015 -1.11319e-014
rhumerus -29.8795 2.5609 -91.6912
rradius 61.0199
rwrist 12.0088
rhand -41.6407 -29.3615
rfingers 7.12502
rthumb -14.549 -58.8313
lclavicle 9.64106e-015 -1.11319e-014
lhumerus -27.6185 -8.08795 88.5244
lradius 59.5944
lwrist -19.9409
lhand -32.5726 -37.6789
lfingers 7.12502
lthumb -5.80158 -7.77837
rfemur -16.5797 1.30254 8.64587
rtibia 43.4217
rfoot -22.8504 -19.211
rtoes -9.20498
lfemur -13.1617 2.83532 -10.0172
ltibia 36.3144
lfoot -26.8974 22.6016
ltoes -34.139
100
root 9.23602 16.0353 -0.133137 -95.4948 -88.4584 95.5064
lowerback -7.56697 0.590413 -1.02767
upperback 3.87097 1.0076 -1.71667
thorax 8.3543 0.475571 -1.09067
lowerneck -3.08679 -0.037477 -0.379702
upperneck 29.5493 -2.35032 3.92045
head 9.90329 -1.18662 1.15171
rclavicle 2.88238e-015 -7.95139e-016
rhumerus -29.838 2.60782 -91.7014
rradius 61.0168
rwrist 11.9972
rhand -41.6763 -29.2826
rfingers 7.12502
rthumb -14.5833 -58.7499
lclavicle 2.88238e-015 -7.95139e-016
lhumerus -27.566 -8.0579 88.506
lradius 59.5821
lwrist -19.9414
lhand -32.5924 -37.6625
lfingers 7.12502
lthumb -5.82065 -7.76249
rfemur -16.5884 1.27213 8.61993
rtibia 43.4169
rfoot -22.8062 -19.1982
rtoes -9.34754
lfemur -13.1754 2.84395 -10.0409
ltibia 36.3152
lfoot -26.88 22.6255
ltoes -34.2599
101
root 9.23632 16.0351 -0.133016 -95.1739 -88.4315 95.1878
lowerback -7.59639 0.556712 -1.10051
upperback 3.89557 0.970166 -1.70051
thorax 8.39612 0.452511 -1.03805
lowerneck -3.14373 -0.013364 -0.404348
upperneck 29.5411 -2.31329 3.93334
head 9.9103 -1.16909 1.16378
rclavicle 4.91992e-015 -1.07344e-014
rhumerus -29.7827 2.70369 -91.7133
rradius 61.0025
rwrist 12.0008
rhand -41.6925 -29.1245
rfingers 7.12502
rthumb -14.5989 -58.5907
lclavicle 4.91992e-015 -1.07344e-014
lhumerus -27.5169 -7.96968 88.4863
lradius 59.5777
lwrist -19.955
lhand -32.6285 -37.6539
lfingers 7.12502
lthumb -5.85554 -7.75484
rfemur -16.5916 1.23873 8.58348
rtibia 43.4154
rfoot -22.7646 -19.1938
rtoes -9.5337
lfemur -13.1871 2.85763 -10.0748
ltibia 36.3145
lfoot -26.8332 22.6579
ltoes -34.4182
102
root 9.23671 16.0347 -0.133053 -94.5011 -88.4048 94.5097
lowerback -7.61804 0.515707 -1.18708
upperback 3.92301 0.923867 -1.67771
thorax 8.4362 0.424096 -0.972083
lowerneck -3.18988 0.0144393 -0.433596
upperneck 29.5213 -2.26788 3.94156
head 9.91068 -1.14874 1.1758
rclavicle -1.14301e-014 0
rhumerus -29.7221 2.81174 -91.7198
rradius 60.9807
rwrist 12.0162
rhand -41.6727 -28.9099
rfingers 7.12502
rthumb -14.5799 -58.3775
lclavicle -1.14301e-014 0
lhumerus -27.474 -7.86653 88.4734
lradius 59.5781
lwrist -19.974
lhand -32.6751 -37.6482
lfingers 7.12502
lthumb -5.90055 -7.75032
rfemur -16.5847 1.20322 8.54774
rtibia 43.417
rfoot -22.7277 -19.2033
rtoes -9.74833
lfemur -13.1941 2.8708 -10.108
ltibia 36.3129
lfoot -26.7632 22.6888
ltoes -34.5855
103
root 9.23737 16.0343 -0.133199 -93.4396 -88.3882 93.4374
lowerback -7.62726 0.479166 -1.25852
upperback 3.94626 0.881485 -1.65353
thorax 8.46488 0.398434 -0.912669
lowerneck -3.24248 0.0376572 -0.452226
upperneck 29.5174 -2.22871 3.93798
head 9.91817 -1.13134 1.18127
rclavicle 5.61567e-015 -4.37326e-015
rhumerus -29.6688 2.89861 -91.7153
rradius 60.956
rwrist 12.0362
rhand -41.6105 -28.6929
rfingers 7.12502
rthumb -14.5199 -58.1648
lclavicle 5.61567e-015 -4.37326e-015
lhumerus -27.4457 -7.78728 88.4738
lradius 59.5816
lwrist -19.9882
lhand -32.7265 -37.6458
lfingers 7.12502
lthumb -5.9502 -7.74936
rfemur -16.5684 1.16999 8.52483
rtibia 43.4203
rfoot -22.7065 -19.2223
rtoes -9.91401
lfemur -13.1969 2.87603 -10.1286
ltibia 36.3118
lfoot -26.6951 22.6977
ltoes -34.7108
104
root 9.23831 16.0339 -0.133373 -92.1673 -88.3832 92.1531
lowerback -7.62381 0.458295 -1.29594
upperback 3.95691 0.856336 -1.63475
thorax 8.47332 0.383403 -0.875552
lowerneck -3.29751 0.052721 -0.451414
upperneck 29.5381 -2.20423 3.92617
head 9.93547 -1.11973 1.17919
rclavicle -4.17448e-015 1.19271e-014
rhumerus -29.6412 2.93686 -91.6979
rradius 60.9351
rwrist 12.0561
rhand -41.5115 -28.4735
rfingers 7.12502
rthumb -14.4245 -57.9522
lclavicle -4.17448e-015 1.19271e-014
lhumerus -27.4437 -7.76086 88.4913
lradius 59.5883
lwrist -19.9926
lhand -32.7745 -37.6559
lfingers 7.12502
lthumb -5.99648 -7.76077
rfemur -16.5484 1.14451 8.517
rtibia 43.4244
rfoot -22.7076 -19.238
rtoes -9.95532
lfemur -13.1985 2.87073 -10.1342
ltibia 36.3124
lfoot -26.6475 22.6849
ltoes -34.783
105
root 9.23957 16.0337 -0.133521 -90.9799 -88.3921 90.9578
lowerback -7.6117 0.458015 -1.29172
upperback 3.95225 0.854378 -1.62306
thorax 8.461 0.382446 -0.865861
lowerneck -3.35693 0.0583224 -0.423284
upperneck 29.5917 -2.19656 3.89929
head 9.96609 -1.11483 1.16556
rclavicle -4.22417e-016 -3.97569e-015
rhumerus -29.6461 2.9222 -91.6699
rradius 60.9232
rwrist 12.0731
rhand -41.3977 -28.2787
rfingers 7.12502
rthumb -14.3149 -57.7653
lclavicle -4.22417e-016 -3.97569e-015
lhumerus -27.4701 -7.7923 88.5239
lradius 59.5989
lwrist -19.9915
lhand -32.8162 -37.685
lfingers 7.12502
lthumb -6.0368 -7.79105
rfemur -16.5339 1.13257 8.52806
rtibia 43.4288
rfoot -22.7239 -19.2508
rtoes -9.90002
lfemur -13.2036 2.85813 -10.1225
ltibia 36.3148
lfoot -26.6239 22.6638
ltoes -34.8033
